<mxfile host="app.diagrams.net" modified="2023-04-12T19:33:22.874Z" agent="Mozilla/5.0 (Windows NT 10.0; Win64; x64) AppleWebKit/537.36 (KHTML, like Gecko) Chrome/111.0.0.0 Safari/537.36 OPR/97.0.0.0" etag="o1zUz2SJZhfPdoaNW1QQ" version="21.1.7" type="github">
  <diagram name="Strona-1" id="ZduXjTZmlqcp6Lb-LAdR">
    <mxGraphModel dx="1394" dy="766" grid="1" gridSize="10" guides="1" tooltips="1" connect="1" arrows="1" fold="1" page="1" pageScale="1" pageWidth="827" pageHeight="1169" background="#000000" math="0" shadow="0">
      <root>
        <mxCell id="0" />
        <mxCell id="1" parent="0" />
        <mxCell id="kUsJ7KgeB7cVjVK8D7a--1" value="a" style="ellipse;whiteSpace=wrap;html=1;aspect=fixed;fontSize=31;strokeColor=#FFFFFF;fontStyle=1" vertex="1" parent="1">
          <mxGeometry x="190" y="100" width="60" height="60" as="geometry" />
        </mxCell>
        <mxCell id="kUsJ7KgeB7cVjVK8D7a--2" value="f" style="ellipse;whiteSpace=wrap;html=1;aspect=fixed;fontSize=31;strokeColor=#FFFFFF;fontStyle=1" vertex="1" parent="1">
          <mxGeometry x="960" y="230" width="60" height="60" as="geometry" />
        </mxCell>
        <mxCell id="kUsJ7KgeB7cVjVK8D7a--3" value="j" style="ellipse;whiteSpace=wrap;html=1;aspect=fixed;fontSize=31;strokeColor=#FFFFFF;fontStyle=1" vertex="1" parent="1">
          <mxGeometry x="560" y="260" width="60" height="60" as="geometry" />
        </mxCell>
        <mxCell id="kUsJ7KgeB7cVjVK8D7a--4" value="m" style="ellipse;whiteSpace=wrap;html=1;aspect=fixed;fontSize=31;strokeColor=#FFFFFF;fontStyle=1" vertex="1" parent="1">
          <mxGeometry x="40" y="280" width="60" height="60" as="geometry" />
        </mxCell>
        <mxCell id="kUsJ7KgeB7cVjVK8D7a--5" value="b" style="ellipse;whiteSpace=wrap;html=1;aspect=fixed;fontSize=31;strokeColor=#FFFFFF;fontStyle=1" vertex="1" parent="1">
          <mxGeometry x="394" y="120" width="60" height="60" as="geometry" />
        </mxCell>
        <mxCell id="kUsJ7KgeB7cVjVK8D7a--6" value="k" style="ellipse;whiteSpace=wrap;html=1;aspect=fixed;fontSize=31;strokeColor=#FFFFFF;fontStyle=1" vertex="1" parent="1">
          <mxGeometry x="360" y="500" width="60" height="60" as="geometry" />
        </mxCell>
        <mxCell id="kUsJ7KgeB7cVjVK8D7a--7" value="h" style="ellipse;whiteSpace=wrap;html=1;aspect=fixed;fontSize=31;strokeColor=#FFFFFF;fontStyle=1" vertex="1" parent="1">
          <mxGeometry x="860" y="360" width="60" height="60" as="geometry" />
        </mxCell>
        <mxCell id="kUsJ7KgeB7cVjVK8D7a--8" value="e" style="ellipse;whiteSpace=wrap;html=1;aspect=fixed;fontSize=31;strokeColor=#FFFFFF;fontStyle=1" vertex="1" parent="1">
          <mxGeometry x="980" y="80" width="60" height="60" as="geometry" />
        </mxCell>
        <mxCell id="kUsJ7KgeB7cVjVK8D7a--9" value="i" style="ellipse;whiteSpace=wrap;html=1;aspect=fixed;fontSize=31;strokeColor=#FFFFFF;fontStyle=1" vertex="1" parent="1">
          <mxGeometry x="580" y="490" width="60" height="60" as="geometry" />
        </mxCell>
        <mxCell id="kUsJ7KgeB7cVjVK8D7a--10" value="l" style="ellipse;whiteSpace=wrap;html=1;aspect=fixed;fontSize=31;strokeColor=#FFFFFF;fontStyle=1" vertex="1" parent="1">
          <mxGeometry x="70" y="560" width="60" height="60" as="geometry" />
        </mxCell>
        <mxCell id="kUsJ7KgeB7cVjVK8D7a--11" value="c" style="ellipse;whiteSpace=wrap;html=1;aspect=fixed;fontSize=31;strokeColor=#FFFFFF;fontStyle=1" vertex="1" parent="1">
          <mxGeometry x="640" y="130" width="60" height="60" as="geometry" />
        </mxCell>
        <mxCell id="kUsJ7KgeB7cVjVK8D7a--12" value="d" style="ellipse;whiteSpace=wrap;html=1;aspect=fixed;fontSize=31;strokeColor=#FFFFFF;fontStyle=1" vertex="1" parent="1">
          <mxGeometry x="820" y="40" width="60" height="60" as="geometry" />
        </mxCell>
        <mxCell id="kUsJ7KgeB7cVjVK8D7a--13" value="g" style="ellipse;whiteSpace=wrap;html=1;aspect=fixed;fontSize=31;strokeColor=#FFFFFF;fontStyle=1" vertex="1" parent="1">
          <mxGeometry x="920" y="610" width="60" height="60" as="geometry" />
        </mxCell>
        <mxCell id="kUsJ7KgeB7cVjVK8D7a--14" value="1" style="endArrow=none;html=1;rounded=0;fontSize=30;fontStyle=1;strokeColor=#FFFFFF;labelBackgroundColor=none;fontColor=#FFFFFF;strokeWidth=3;" edge="1" parent="1" source="kUsJ7KgeB7cVjVK8D7a--9" target="kUsJ7KgeB7cVjVK8D7a--3">
          <mxGeometry x="-0.094" y="-29" width="50" height="50" relative="1" as="geometry">
            <mxPoint x="400" y="500" as="sourcePoint" />
            <mxPoint x="450" y="450" as="targetPoint" />
            <mxPoint as="offset" />
          </mxGeometry>
        </mxCell>
        <mxCell id="kUsJ7KgeB7cVjVK8D7a--15" value="5" style="endArrow=none;html=1;rounded=0;fontSize=30;fontStyle=1;strokeColor=#FFFFFF;labelBackgroundColor=none;fontColor=#FFFFFF;strokeWidth=3;" edge="1" parent="1" source="kUsJ7KgeB7cVjVK8D7a--9" target="kUsJ7KgeB7cVjVK8D7a--7">
          <mxGeometry x="0.1186" y="32" width="50" height="50" relative="1" as="geometry">
            <mxPoint x="458" y="464" as="sourcePoint" />
            <mxPoint x="412" y="406" as="targetPoint" />
            <mxPoint as="offset" />
          </mxGeometry>
        </mxCell>
        <mxCell id="kUsJ7KgeB7cVjVK8D7a--17" value="2" style="endArrow=none;html=1;rounded=0;fontSize=30;fontStyle=1;strokeColor=#FFFFFF;labelBackgroundColor=none;fontColor=#FFFFFF;strokeWidth=3;" edge="1" parent="1" source="kUsJ7KgeB7cVjVK8D7a--5" target="kUsJ7KgeB7cVjVK8D7a--1">
          <mxGeometry x="0.2054" y="-29" width="50" height="50" relative="1" as="geometry">
            <mxPoint x="602" y="464" as="sourcePoint" />
            <mxPoint x="556" y="406" as="targetPoint" />
            <mxPoint as="offset" />
          </mxGeometry>
        </mxCell>
        <mxCell id="kUsJ7KgeB7cVjVK8D7a--20" value="4" style="endArrow=none;html=1;rounded=0;fontSize=30;fontStyle=1;strokeColor=#FFFFFF;labelBackgroundColor=none;fontColor=#FFFFFF;strokeWidth=3;" edge="1" parent="1" source="kUsJ7KgeB7cVjVK8D7a--13" target="kUsJ7KgeB7cVjVK8D7a--7">
          <mxGeometry x="0.002" y="-21" width="50" height="50" relative="1" as="geometry">
            <mxPoint x="508" y="514" as="sourcePoint" />
            <mxPoint x="462" y="456" as="targetPoint" />
            <mxPoint as="offset" />
          </mxGeometry>
        </mxCell>
        <mxCell id="kUsJ7KgeB7cVjVK8D7a--21" value="2" style="endArrow=none;html=1;rounded=0;fontSize=30;fontStyle=1;strokeColor=#FFFFFF;labelBackgroundColor=none;fontColor=#FFFFFF;strokeWidth=3;" edge="1" parent="1" source="kUsJ7KgeB7cVjVK8D7a--2" target="kUsJ7KgeB7cVjVK8D7a--7">
          <mxGeometry x="0.0058" y="-25" width="50" height="50" relative="1" as="geometry">
            <mxPoint x="858" y="474" as="sourcePoint" />
            <mxPoint x="812" y="416" as="targetPoint" />
            <mxPoint as="offset" />
          </mxGeometry>
        </mxCell>
        <mxCell id="kUsJ7KgeB7cVjVK8D7a--22" value="1" style="endArrow=none;html=1;rounded=0;fontSize=30;fontStyle=1;strokeColor=#FFFFFF;labelBackgroundColor=none;fontColor=#FFFFFF;strokeWidth=3;" edge="1" parent="1" source="kUsJ7KgeB7cVjVK8D7a--13" target="kUsJ7KgeB7cVjVK8D7a--9">
          <mxGeometry x="-0.1439" y="-29" width="50" height="50" relative="1" as="geometry">
            <mxPoint x="528" y="534" as="sourcePoint" />
            <mxPoint x="482" y="476" as="targetPoint" />
            <mxPoint as="offset" />
          </mxGeometry>
        </mxCell>
        <mxCell id="kUsJ7KgeB7cVjVK8D7a--23" value="7" style="endArrow=none;html=1;rounded=0;fontSize=30;fontStyle=1;strokeColor=#FFFFFF;labelBackgroundColor=none;fontColor=#FFFFFF;strokeWidth=3;" edge="1" parent="1" source="kUsJ7KgeB7cVjVK8D7a--4" target="kUsJ7KgeB7cVjVK8D7a--6">
          <mxGeometry x="-0.0533" y="30" width="50" height="50" relative="1" as="geometry">
            <mxPoint x="538" y="544" as="sourcePoint" />
            <mxPoint x="492" y="486" as="targetPoint" />
            <mxPoint as="offset" />
          </mxGeometry>
        </mxCell>
        <mxCell id="kUsJ7KgeB7cVjVK8D7a--24" value="3" style="endArrow=none;html=1;rounded=0;fontSize=30;fontStyle=1;strokeColor=#FFFFFF;labelBackgroundColor=none;fontColor=#FFFFFF;strokeWidth=3;" edge="1" parent="1" source="kUsJ7KgeB7cVjVK8D7a--10" target="kUsJ7KgeB7cVjVK8D7a--4">
          <mxGeometry x="-0.1139" y="-24" width="50" height="50" relative="1" as="geometry">
            <mxPoint x="548" y="554" as="sourcePoint" />
            <mxPoint x="502" y="496" as="targetPoint" />
            <mxPoint y="-1" as="offset" />
          </mxGeometry>
        </mxCell>
        <mxCell id="kUsJ7KgeB7cVjVK8D7a--25" value="4" style="endArrow=none;html=1;rounded=0;fontSize=30;fontStyle=1;strokeColor=#FFFFFF;labelBackgroundColor=none;fontColor=#FFFFFF;strokeWidth=3;" edge="1" parent="1" source="kUsJ7KgeB7cVjVK8D7a--10" target="kUsJ7KgeB7cVjVK8D7a--6">
          <mxGeometry x="-0.0728" y="32" width="50" height="50" relative="1" as="geometry">
            <mxPoint x="558" y="564" as="sourcePoint" />
            <mxPoint x="512" y="506" as="targetPoint" />
            <mxPoint as="offset" />
          </mxGeometry>
        </mxCell>
        <mxCell id="kUsJ7KgeB7cVjVK8D7a--26" value="3" style="endArrow=none;html=1;rounded=0;fontSize=30;fontStyle=1;strokeColor=#FFFFFF;labelBackgroundColor=none;fontColor=#FFFFFF;strokeWidth=3;" edge="1" parent="1" source="kUsJ7KgeB7cVjVK8D7a--4" target="kUsJ7KgeB7cVjVK8D7a--1">
          <mxGeometry x="-0.0956" y="26" width="50" height="50" relative="1" as="geometry">
            <mxPoint x="568" y="574" as="sourcePoint" />
            <mxPoint x="522" y="516" as="targetPoint" />
            <mxPoint as="offset" />
          </mxGeometry>
        </mxCell>
        <mxCell id="kUsJ7KgeB7cVjVK8D7a--27" value="7" style="endArrow=none;html=1;rounded=0;fontSize=30;fontStyle=1;strokeColor=#FFFFFF;labelBackgroundColor=none;fontColor=#FFFFFF;strokeWidth=3;" edge="1" parent="1" source="kUsJ7KgeB7cVjVK8D7a--8" target="kUsJ7KgeB7cVjVK8D7a--12">
          <mxGeometry x="0.1397" y="-29" width="50" height="50" relative="1" as="geometry">
            <mxPoint x="918" y="534" as="sourcePoint" />
            <mxPoint x="872" y="476" as="targetPoint" />
            <mxPoint as="offset" />
          </mxGeometry>
        </mxCell>
        <mxCell id="kUsJ7KgeB7cVjVK8D7a--28" value="3" style="endArrow=none;html=1;rounded=0;fontSize=30;fontStyle=1;strokeColor=#FFFFFF;labelBackgroundColor=none;fontColor=#FFFFFF;strokeWidth=3;" edge="1" parent="1" source="kUsJ7KgeB7cVjVK8D7a--8" target="kUsJ7KgeB7cVjVK8D7a--2">
          <mxGeometry x="0.01" y="26" width="50" height="50" relative="1" as="geometry">
            <mxPoint x="928" y="544" as="sourcePoint" />
            <mxPoint x="882" y="486" as="targetPoint" />
            <mxPoint x="-1" as="offset" />
          </mxGeometry>
        </mxCell>
        <mxCell id="kUsJ7KgeB7cVjVK8D7a--29" value="1" style="endArrow=none;html=1;rounded=0;fontSize=30;fontStyle=1;strokeColor=#FFFFFF;labelBackgroundColor=none;fontColor=#FFFFFF;strokeWidth=3;" edge="1" parent="1" source="kUsJ7KgeB7cVjVK8D7a--2" target="kUsJ7KgeB7cVjVK8D7a--11">
          <mxGeometry x="0.0453" y="-30" width="50" height="50" relative="1" as="geometry">
            <mxPoint x="598" y="604" as="sourcePoint" />
            <mxPoint x="552" y="546" as="targetPoint" />
            <mxPoint as="offset" />
          </mxGeometry>
        </mxCell>
        <mxCell id="kUsJ7KgeB7cVjVK8D7a--31" value="1" style="endArrow=none;html=1;rounded=0;fontSize=30;fontStyle=1;strokeColor=#FFFFFF;labelBackgroundColor=none;fontColor=#FFFFFF;strokeWidth=3;" edge="1" parent="1" source="kUsJ7KgeB7cVjVK8D7a--6" target="kUsJ7KgeB7cVjVK8D7a--5">
          <mxGeometry x="0.1038" y="16" width="50" height="50" relative="1" as="geometry">
            <mxPoint x="618" y="624" as="sourcePoint" />
            <mxPoint x="572" y="566" as="targetPoint" />
            <mxPoint as="offset" />
          </mxGeometry>
        </mxCell>
      </root>
    </mxGraphModel>
  </diagram>
</mxfile>
